<svg id="a007dd0e-7ccb-480a-9f9c-d16ed8f42fdc" data-name="Layer 1" xmlns="http://www.w3.org/2000/svg" viewBox="0 0 1000 1000"><path d="M603.8,319q31.4,0,54.3,22.9T681,396.2c0,20.9-7.7,39-22.9,54.3s-33.3,22.9-54.3,22.9-39.1-7.6-54.3-22.9-22.9-33.4-22.9-54.3,7.6-39,22.9-54.3S582.9,319,603.8,319Zm0,207.6q31.4,0,54.3,22.9T681,603.8c0,20.9-7.7,39-22.9,54.3S624.8,681,603.8,681s-39.1-7.6-54.3-22.9-22.9-33.4-22.9-54.3,7.6-39,22.9-54.3S582.9,526.6,603.8,526.6ZM396.2,758.3c14.5,0,27,4.8,37.4,14.5s15.7,21.7,15.7,36.2-5.2,26.6-15.7,36.2a53.5,53.5,0,0,1-37.4,14.5c-14.5,0-26.6-4.8-36.2-14.5s-14.5-21.7-14.5-36.2,4.8-26.6,14.5-36.2S381.7,758.3,396.2,758.3Zm0-439.3q31.4,0,54.3,22.9t22.9,54.3c0,20.9-7.7,39-22.9,54.3s-33.3,22.9-54.3,22.9-39.1-7.6-54.3-22.9S319,417.1,319,396.2s7.6-39,22.9-54.3S375.3,319,396.2,319ZM603.8,936.9c16.1,0,24.2,8.9,24.2,26.6s-8,26.6-24.2,26.6-26.6-8.9-26.6-26.6S586.1,936.9,603.8,936.9Zm0-178.6c14.5,0,26.6,4.8,36.2,14.5s14.5,21.7,14.5,36.2-4.8,26.6-14.5,36.2-21.7,14.5-36.2,14.5-27-4.8-37.4-14.5-15.7-21.7-15.7-36.2,5.2-26.6,15.7-36.2S589.3,758.3,603.8,758.3ZM963.4,577.2c17.7,0,26.6,8.9,26.6,26.6,0,16.1-8.9,24.2-26.6,24.2s-26.6-8-26.6-24.2S945.7,577.2,963.4,577.2ZM809,140.4c14.5,0,26.6,4.8,36.2,14.5s14.5,21.7,14.5,36.2-4.8,26.6-14.5,36.2-21.7,14.5-36.2,14.5-26.6-4.8-36.2-14.5-14.5-21.7-14.5-36.2,4.8-26.6,14.5-36.2S794.5,140.4,809,140.4Zm0,205.1c14.5,0,26.6,4.8,36.2,14.5s14.5,21.7,14.5,36.2-4.8,27-14.5,37.4-21.7,15.7-36.2,15.7-26.6-5.2-36.2-15.7a53.5,53.5,0,0,1-14.5-37.4c0-14.5,4.8-26.6,14.5-36.2S794.5,345.5,809,345.5Zm0,412.8c14.5,0,26.6,4.8,36.2,14.5s14.5,21.7,14.5,36.2-4.8,26.6-14.5,36.2-21.7,14.5-36.2,14.5-26.6-4.8-36.2-14.5-14.5-21.7-14.5-36.2,4.8-26.6,14.5-36.2S794.5,758.3,809,758.3Zm0-207.6c14.5,0,26.6,5.2,36.2,15.7a53.5,53.5,0,0,1,14.5,37.4c0,14.5-4.8,26.6-14.5,36.2s-21.7,14.5-36.2,14.5-26.6-4.8-36.2-14.5-14.5-21.7-14.5-36.2,4.8-27,14.5-37.4S794.5,550.7,809,550.7ZM396.2,526.6q31.4,0,54.3,22.9t22.9,54.3c0,20.9-7.7,39-22.9,54.3S417.2,681,396.2,681s-39.1-7.6-54.3-22.9S319,624.7,319,603.8s7.6-39,22.9-54.3S375.3,526.6,396.2,526.6Zm0-284.9c-14.5,0-26.6-4.8-36.2-14.5s-14.5-21.7-14.5-36.2,4.8-26.6,14.5-36.2,21.7-14.5,36.2-14.5,27,4.8,37.4,14.5,15.7,21.7,15.7,36.2-5.2,26.6-15.7,36.2S410.7,241.7,396.2,241.7Zm0-178.6c-16.1,0-24.1-8.9-24.1-26.6s8-26.6,24.1-26.6c17.7,0,26.6,8.9,26.6,26.6S413.9,63.1,396.2,63.1Zm0,873.8c17.7,0,26.6,8.9,26.6,26.6s-8.9,26.6-26.6,26.6c-16.1,0-24.1-8.9-24.1-26.6S380.1,936.9,396.2,936.9ZM36.6,577.2c17.7,0,26.6,8.9,26.6,26.6,0,16.1-8.9,24.2-26.6,24.2S10,620,10,603.8,18.9,577.2,36.6,577.2ZM603.8,63.1c-17.7,0-26.6-8.9-26.6-26.6s8.9-26.6,26.6-26.6c16.1,0,24.2,8.9,24.2,26.6S619.9,63.1,603.8,63.1Zm0,178.6c-14.5,0-27-4.8-37.4-14.5s-15.7-21.7-15.7-36.2,5.2-26.6,15.7-36.2a53.5,53.5,0,0,1,37.4-14.5c14.5,0,26.6,4.8,36.2,14.5s14.5,21.7,14.5,36.2-4.8,26.6-14.5,36.2S618.3,241.7,603.8,241.7ZM963.4,422.8c-17.7,0-26.6-8.9-26.6-26.6,0-16.1,8.9-24.1,26.6-24.1s26.6,8,26.6,24.1C990,413.9,981.1,422.8,963.4,422.8ZM191,140.4c14.5,0,26.6,4.8,36.2,14.5s14.5,21.7,14.5,36.2-4.8,26.6-14.5,36.2-21.7,14.5-36.2,14.5-26.6-4.8-36.2-14.5-14.5-21.7-14.5-36.2,4.8-26.6,14.5-36.2S176.6,140.4,191,140.4ZM36.6,372.1c17.7,0,26.6,8.1,26.6,24.1,0,17.7-8.9,26.6-26.6,26.6S10,413.9,10,396.2C10,380.1,18.9,372.1,36.6,372.1ZM191,345.5c14.5,0,26.6,4.8,36.2,14.5s14.5,21.7,14.5,36.2-4.8,27-14.5,37.4-21.7,15.7-36.2,15.7-26.6-5.2-36.2-15.7a53.5,53.5,0,0,1-14.5-37.4c0-14.5,4.8-26.6,14.5-36.2S176.6,345.5,191,345.5Zm0,412.8c14.5,0,26.6,4.8,36.2,14.5s14.5,21.7,14.5,36.2-4.8,26.6-14.5,36.2-21.7,14.5-36.2,14.5-26.6-4.8-36.2-14.5-14.5-21.7-14.5-36.2,4.8-26.6,14.5-36.2S176.6,758.3,191,758.3Zm0-207.6c14.5,0,26.6,5.2,36.2,15.7a53.5,53.5,0,0,1,14.5,37.4c0,14.5-4.8,26.6-14.5,36.2s-21.7,14.5-36.2,14.5-26.6-4.8-36.2-14.5-14.5-21.7-14.5-36.2,4.8-27,14.5-37.4S176.6,550.7,191,550.7Z"/></svg>