<svg id="b3d6d502-4685-4ad2-8744-9c4f079b4dd6" data-name="a5ee0365-eab4-4229-89c1-0ef3276afe56" xmlns="http://www.w3.org/2000/svg" viewBox="0 0 1291.6 1117.3"><defs><style>.a2526f5d-b75b-46e1-a310-915a39dd6aad{fill:#e5e5e5;}.a1864d94-7869-4636-acc5-34d089137972{fill:#d99938;}</style></defs><path class="a2526f5d-b75b-46e1-a310-915a39dd6aad" d="M645.8,664.9h0c-59.4,0-107.5-59.4-107.5-132.8V467.6c0-6.2,4-11.1,9-11.1h197c5,0,9,4.9,9,11.1v64.5C753.3,605.5,705.2,664.9,645.8,664.9Z"/><path class="a1864d94-7869-4636-acc5-34d089137972" d="M605.8,836.3V810.2a7.4,7.4,0,0,0-5.8-7.3c-72.8-12.9-135.9-56-177-116.6a6.9,6.9,0,0,0-8.8-2.3l-22.6,11.3a7.5,7.5,0,0,0-3.1,10.2,2.1,2.1,0,0,0,.4.6,320.2,320.2,0,0,0,36.4,45.7c47.4,49.6,107.4,81.3,172.4,91.7a7,7,0,0,0,8-6A4.9,4.9,0,0,0,605.8,836.3Z"/><path class="a1864d94-7869-4636-acc5-34d089137972" d="M365.7,521.2H341.1a7.3,7.3,0,0,0-7,7.4h0a343.2,343.2,0,0,0,13,86.7,6.9,6.9,0,0,0,8.3,5.1,4.7,4.7,0,0,0,1.5-.6l22.6-11.3a7.6,7.6,0,0,0,3.7-8.6,297.8,297.8,0,0,1-10.5-71.6A7.3,7.3,0,0,0,365.7,521.2Z"/><path class="a1864d94-7869-4636-acc5-34d089137972" d="M950.5,521.2H925.9a7.3,7.3,0,0,0-7,7.2A297.8,297.8,0,0,1,908.4,600a7.5,7.5,0,0,0,3.7,8.6l22.6,11.3a6.7,6.7,0,0,0,9.2-3,4.7,4.7,0,0,0,.6-1.5,343.2,343.2,0,0,0,13-86.7,7.1,7.1,0,0,0-6.9-7.4Z"/><path class="a1864d94-7869-4636-acc5-34d089137972" d="M685.8,810.2v26.1a7.1,7.1,0,0,0,6.9,7.3h1.2c65-10.4,125-42.1,172.4-91.7a327.4,327.4,0,0,0,36.4-45.7,7.5,7.5,0,0,0-2.1-10.4l-.6-.4L877.4,684a6.9,6.9,0,0,0-8.8,2.3c-41.1,60.6-104.2,103.7-177,116.6A7.3,7.3,0,0,0,685.8,810.2Z"/><path class="a1864d94-7869-4636-acc5-34d089137972" d="M685.8,910.2v25.9a7.3,7.3,0,0,0,7.1,7.4h.7A385.7,385.7,0,0,0,804,912.9a403.8,403.8,0,0,0,129.2-91.1A419.1,419.1,0,0,0,989,749.1a7.4,7.4,0,0,0-2.6-10.2l-.3-.3-22.5-11.3a6.9,6.9,0,0,0-8.9,2.6C897,823,802,888.5,691.9,902.9A7.2,7.2,0,0,0,685.8,910.2Z"/><path class="a1864d94-7869-4636-acc5-34d089137972" d="M271.1,521.2H246.5a7.3,7.3,0,0,0-7,7.4h0a436,436,0,0,0,21.7,130.2,6.9,6.9,0,0,0,8.6,4.7l1.1-.5,22.4-11.2a7.5,7.5,0,0,0,3.6-8.9,393.9,393.9,0,0,1-18.8-114.6A7.3,7.3,0,0,0,271.1,521.2Z"/><path class="a1864d94-7869-4636-acc5-34d089137972" d="M1045.1,521.2h-24.6a7.3,7.3,0,0,0-7,7.2A397.3,397.3,0,0,1,994.7,643a7.5,7.5,0,0,0,3.6,8.9l22.4,11.2a6.7,6.7,0,0,0,9.2-3,6.1,6.1,0,0,0,.5-1.2,439.2,439.2,0,0,0,21.7-130.2,7.1,7.1,0,0,0-6.9-7.4Z"/><path class="a1864d94-7869-4636-acc5-34d089137972" d="M487.6,912.9A385.7,385.7,0,0,0,598,943.4a7.2,7.2,0,0,0,7.8-6.5V910.2a7.4,7.4,0,0,0-6.1-7.3c-110.1-14.4-205.1-79.9-262.8-173a6.9,6.9,0,0,0-8.9-2.6l-22.5,11.3a7.5,7.5,0,0,0-3.1,10.2c0,.1.1.2.2.3a419.1,419.1,0,0,0,55.8,72.7A401.6,401.6,0,0,0,487.6,912.9Z"/><path class="a1864d94-7869-4636-acc5-34d089137972" d="M1139.7,521.2h-24.5a7.2,7.2,0,0,0-7.1,7.2,502,502,0,0,1-27.5,157.5,7.5,7.5,0,0,0,3.6,9.1l22.3,11.2a6.9,6.9,0,0,0,9.2-3.1,3,3,0,0,0,.4-1,541.9,541.9,0,0,0,30.7-173.4,7.4,7.4,0,0,0-7.1-7.5Z"/><path class="a1864d94-7869-4636-acc5-34d089137972" d="M685.8,1009.8v25.8a7.3,7.3,0,0,0,7,7.5h.7a474.3,474.3,0,0,0,147.3-38.9,497.2,497.2,0,0,0,159.3-112.3,516.1,516.1,0,0,0,74.7-99.7,7.5,7.5,0,0,0-2.6-10.2l-.4-.3-22.4-11.2a6.9,6.9,0,0,0-9,2.7c-73.7,125.9-200.9,214-348.3,229.4A7.2,7.2,0,0,0,685.8,1009.8Z"/><path class="a1864d94-7869-4636-acc5-34d089137972" d="M176.4,521.2H151.9a7.4,7.4,0,0,0-7.1,7.5h0a539.1,539.1,0,0,0,30.7,173.4,6.8,6.8,0,0,0,8.7,4.5l.9-.4L207.4,695a7.5,7.5,0,0,0,3.6-9.1,496.3,496.3,0,0,1-27.5-157.5A7.3,7.3,0,0,0,176.4,521.2Z"/><path class="a1864d94-7869-4636-acc5-34d089137972" d="M242.2,770.4l-22.4,11.2a7.6,7.6,0,0,0-3.2,10.2c0,.1.1.2.2.3a516.1,516.1,0,0,0,74.7,99.7,496.1,496.1,0,0,0,159.3,112.3A473.5,473.5,0,0,0,598.1,1043a7.2,7.2,0,0,0,7.7-6.6v-26.6a7.3,7.3,0,0,0-6.3-7.3C452.1,987.1,324.9,899,251.2,773.1A6.9,6.9,0,0,0,242.2,770.4Z"/><rect class="a2526f5d-b75b-46e1-a310-915a39dd6aad" x="534.2" y="359.1" width="216" height="76" rx="15.5"/><path class="a1864d94-7869-4636-acc5-34d089137972" d="M646.9,626.6a36.5,36.5,0,1,1,36.5-36.5h0A36.5,36.5,0,0,1,646.9,626.6Zm0-66.4a30.1,30.1,0,1,0,29.9,30.3v-.4A30,30,0,0,0,646.9,560.2Z"/><path class="a1864d94-7869-4636-acc5-34d089137972" d="M646.9,593.8a36.5,36.5,0,1,1,36.5-36.5h0A36.5,36.5,0,0,1,646.9,593.8Zm0-66.5a30.2,30.2,0,1,0,29.9,30.4v-.4A30.1,30.1,0,0,0,646.9,527.3Z"/><path class="a1864d94-7869-4636-acc5-34d089137972" d="M646.9,560.2a36.5,36.5,0,1,1,36.5-36.5h0A36.7,36.7,0,0,1,646.9,560.2Zm0-66.5A30.2,30.2,0,1,0,676.8,524v-.3a30.1,30.1,0,0,0-29.9-30Z"/><path class="a1864d94-7869-4636-acc5-34d089137972" d="M675.6,576.9a36.5,36.5,0,1,1,36.5-36.5h0A36.6,36.6,0,0,1,675.6,576.9Zm0-66.5a30,30,0,1,0,30,30,30,30,0,0,0-30-30Z"/><path class="a1864d94-7869-4636-acc5-34d089137972" d="M675.3,610.6a36.5,36.5,0,1,1,36.5-36.5h0A36.7,36.7,0,0,1,675.3,610.6Zm0-66.5a30.2,30.2,0,1,0,30.2,30.1h0a30,30,0,0,0-30-30Z"/><path class="a1864d94-7869-4636-acc5-34d089137972" d="M618.2,576.6a36.5,36.5,0,1,1,36.5-36.5h0A36.5,36.5,0,0,1,618.2,576.6Zm0-66.5a30.2,30.2,0,1,0,30.2,30.1h0a30,30,0,0,0-30-30Z"/><path class="a1864d94-7869-4636-acc5-34d089137972" d="M618.1,610.4a36.7,36.7,0,1,1,36.5-36.8h0a36.6,36.6,0,0,1-36.4,36.7Zm0-66.6A30.1,30.1,0,1,0,648,574.1v-.4A30,30,0,0,0,618.1,543.8Z"/><path class="a1864d94-7869-4636-acc5-34d089137972" d="M647,555.8a28.6,28.6,0,0,1,0-30.3"/><path class="a1864d94-7869-4636-acc5-34d089137972" d="M646.3,589.1a27.8,27.8,0,0,0,.2-30.1"/><path class="a1864d94-7869-4636-acc5-34d089137972" d="M648.2,556.1a28.3,28.3,0,0,1,26.3-14.9"/><path class="a1864d94-7869-4636-acc5-34d089137972" d="M674.3,572.9a27.9,27.9,0,0,0-26.1-15.1"/><path class="a1864d94-7869-4636-acc5-34d089137972" d="M645,558a27.6,27.6,0,0,1-26.1,14.9"/><path class="a1864d94-7869-4636-acc5-34d089137972" d="M619.2,541.1a27.7,27.7,0,0,0,26.1,15"/><path class="a2526f5d-b75b-46e1-a310-915a39dd6aad" d="M184.7,266.5H151a4.2,4.2,0,0,1-4.2-4.2V80.5a4.2,4.2,0,0,1,4.2-4.2h33.7a4.2,4.2,0,0,1,4.2,4.2V262.3A4.2,4.2,0,0,1,184.7,266.5Z"/><path class="a2526f5d-b75b-46e1-a310-915a39dd6aad" d="M406.8,228.9c0,11.8-5.3,21.6-15.9,29.3s-21.8,10.9-35.7,10.9a59.8,59.8,0,0,1-32.2-8.7,52.9,52.9,0,0,1-22.5-28c-.9-2.5-5-15.7-12.1-39.8-6.6-21.8-12.3-38.8-17.1-51.2-6.8-16.9-12.3-25-16.5-24.5A10.6,10.6,0,0,0,249,120a10.7,10.7,0,0,0-1.6,6.2V262.3a4.2,4.2,0,0,1-4.2,4.2H206.8a4.2,4.2,0,0,1-4.2-4.2V116.6c0-13.7,5.6-24.1,16.7-31.2s22-9.2,37-9.2c20.2,0,36.1,9.3,48,28,8,12.4,15.5,32.6,22.7,60.4q12,45.9,17.4,56.9c2,4,5.1,6,9.2,6a7.1,7.1,0,0,0,5.7-2.5,9.1,9.1,0,0,0,2.4-6.7V82.4a4.2,4.2,0,0,1,4.2-4.2h36.7a4.2,4.2,0,0,1,4.2,4.2Z"/><path class="a2526f5d-b75b-46e1-a310-915a39dd6aad" d="M605.5,77.6a4.2,4.2,0,0,1,4.2,4.2,3.7,3.7,0,0,1-.1,1.1c-3.9,13.1-8.8,29.4-14.9,49-8.7,28-16.8,53.6-24.5,76.8q-13.2,39.9-16.4,44.7c-3.6,5.2-9,9.2-16.2,12.1a58.3,58.3,0,0,1-22.9,4.4,60,60,0,0,1-22.9-4.2c-7-2.8-12.3-6.9-16-12.3-2.2-3-7.7-17.9-16.5-44.5-5.4-16-13.4-41.7-24.2-76.9-7.3-23.5-12.3-39.8-15.2-49a4.2,4.2,0,0,1,2.8-5.2l1.2-.2h35.7a4.3,4.3,0,0,1,4,2.8l47.8,144.8c.3,1.5,1.3,2.3,3.2,2.3a4.3,4.3,0,0,0,4-2.3L565.3,80.5a4.1,4.1,0,0,1,4-2.9Z"/><path class="a2526f5d-b75b-46e1-a310-915a39dd6aad" d="M662,266.5H628.3a4.2,4.2,0,0,1-4.2-4.2h0V80.5a4.2,4.2,0,0,1,4.2-4.2H662a4.2,4.2,0,0,1,4.2,4.2h0V262.3A4.2,4.2,0,0,1,662,266.5Z"/><path class="a2526f5d-b75b-46e1-a310-915a39dd6aad" d="M804.1,116.5H769.5a4.2,4.2,0,0,0-4.2,4.2h0V262.3a4.2,4.2,0,0,1-4.2,4.2H727.9a4.2,4.2,0,0,1-4.2-4.2h0V120.7a4.2,4.2,0,0,0-4.2-4.2H685a4.2,4.2,0,0,1-4.2-4.2h0V80.5a4.2,4.2,0,0,1,4.2-4.2H804.1a4.2,4.2,0,0,1,4.2,4.2h0v31.8a4.2,4.2,0,0,1-4.2,4.2Z"/><path class="a2526f5d-b75b-46e1-a310-915a39dd6aad" d="M973.6,262.3a4.2,4.2,0,0,1-4.2,4.2H869.1c-15.6,0-28-6.1-37.1-18.3s-12.3-24.3-12.3-40.1q0-20.1,9-35.1a4.2,4.2,0,0,0,0-4.3c-6-10-9-21.5-9-34.7,0-15.5,4.1-28.8,12.3-39.6a46.2,46.2,0,0,1,37.1-18.1H969.4a4.2,4.2,0,0,1,4.2,4.2h0v31.8a4.2,4.2,0,0,1-4.2,4.2H875.9a12.4,12.4,0,0,0-10.4,5.2,20.2,20.2,0,0,0-3.9,12.2,18.5,18.5,0,0,0,3.7,11.6c2.5,3.2,6,4.8,10.6,4.8h93.5a4.2,4.2,0,0,1,4.2,4.2h0v36.9H871.4a5.1,5.1,0,0,0-2.2.6,14.1,14.1,0,0,0-5.2,5.9,23.2,23.2,0,0,0-2.4,10.3,20.2,20.2,0,0,0,3.7,12.2,12,12,0,0,0,10.6,5.1h93.5a4.2,4.2,0,0,1,4.2,4.2h0Z"/><path class="a2526f5d-b75b-46e1-a310-915a39dd6aad" d="M1079.1,266.5H993.8a4.2,4.2,0,0,1-4.2-4.2h0V80.5a4.2,4.2,0,0,1,4.2-4.2h85.3q31.7,0,50.6,30.2c11.4,18.2,17.1,40.4,17.1,66.4s-5.6,47-16.8,64.5Q1111.3,266.5,1079.1,266.5Zm-6.8-41.3q14.4,0,23.1-17.4c5.3-10.6,7.9-23.3,7.9-38.3s-2.5-26.7-7.6-36.5-13.5-16.5-23.4-16.5h-38a4.2,4.2,0,0,0-4.2,4.2h0V221a4.2,4.2,0,0,0,4.2,4.2h38Z"/><rect class="a1864d94-7869-4636-acc5-34d089137972" x="579.9" y="347.7" width="125.1" height="22.82"/><rect class="a1864d94-7869-4636-acc5-34d089137972" x="145.8" y="346.8" width="36" height="98.46" rx="6.7"/><rect class="a1864d94-7869-4636-acc5-34d089137972" x="240.8" y="347" width="36" height="98.46" rx="6.7"/><rect class="a1864d94-7869-4636-acc5-34d089137972" x="332.8" y="347" width="36" height="98.46" rx="6.7"/><rect class="a1864d94-7869-4636-acc5-34d089137972" x="921.9" y="346.7" width="36" height="98.46" rx="6.7"/><rect class="a1864d94-7869-4636-acc5-34d089137972" x="1016.9" y="346.9" width="36" height="98.46" rx="6.7"/><rect class="a1864d94-7869-4636-acc5-34d089137972" x="1108.9" y="346.9" width="36" height="98.46" rx="6.7"/></svg>