<svg id="f9052dee-b5e8-4300-8841-ab12e911139e" data-name="a5ee0365-eab4-4229-89c1-0ef3276afe56" xmlns="http://www.w3.org/2000/svg" viewBox="0 0 1291.6 1117.3"><defs><style>.b82b9d70-eab6-4946-b6fa-315c91ab56d7{fill:#e5e5e5;}.e3d3abc3-c236-49ec-b703-219988a267df{fill:#d99938;}</style></defs><path class="b82b9d70-eab6-4946-b6fa-315c91ab56d7" d="M95.5,1047.3h-40a5,5,0,0,1-5-5V826.2a5,5,0,0,1,5-5h40a5,5,0,0,1,5,5v216.1A5,5,0,0,1,95.5,1047.3Z"/><path class="b82b9d70-eab6-4946-b6fa-315c91ab56d7" d="M359.5,1002.6c0,14-6.3,25.7-18.9,34.8s-25.9,13-42.4,13a71.9,71.9,0,0,1-38.3-10.4,62.6,62.6,0,0,1-26.7-33.2c-1.1-3-6-18.7-14.4-47.4-7.9-25.9-14.6-46.1-20.3-60.8-8.1-20.1-14.7-29.7-19.6-29.1a11.5,11.5,0,0,0-6.9,3.7,11.8,11.8,0,0,0-1.9,7.3v161.8a5,5,0,0,1-5,5H121.8a5,5,0,0,1-5-5V869.1c0-16.3,6.7-28.6,19.9-37.1s26.1-10.9,43.9-10.9c24,0,42.9,11.1,57.1,33.3,9.5,14.7,18.4,38.7,27,71.8,9.5,36.3,16.4,58.9,20.6,67.6,2.4,4.8,6.1,7.1,11,7.1a8.9,8.9,0,0,0,6.8-2.9,10.8,10.8,0,0,0,2.8-8V828.5a5,5,0,0,1,5-5h43.6a5,5,0,0,1,5,5Z"/><path class="b82b9d70-eab6-4946-b6fa-315c91ab56d7" d="M595.7,822.8a4.8,4.8,0,0,1,5,4.9,6.6,6.6,0,0,1-.1,1.4c-4.7,15.5-10.5,34.9-17.7,58.2-10.4,33.3-20,63.7-29.2,91.3q-15.6,47.4-19.5,53.1c-4.2,6.2-10.7,11-19.2,14.4a70.7,70.7,0,0,1-27.2,5.2,73,73,0,0,1-27.3-5c-8.3-3.3-14.6-8.2-19-14.6-2.6-3.5-9.1-21.3-19.6-52.9q-9.4-28.6-28.7-91.4l-18.1-58.2a5,5,0,0,1,3.3-6.2,3.6,3.6,0,0,1,1.4-.2h42.5a4.8,4.8,0,0,1,4.7,3.3l56.8,172.1c.4,1.8,1.6,2.7,3.8,2.7a5.2,5.2,0,0,0,4.8-2.7l55.5-172a4.8,4.8,0,0,1,4.8-3.4Z"/><path class="b82b9d70-eab6-4946-b6fa-315c91ab56d7" d="M662.8,1047.3h-40a5,5,0,0,1-5-5h0V826.2a5,5,0,0,1,5-5h40a5,5,0,0,1,5,5h0v216.1A5,5,0,0,1,662.8,1047.3Z"/><path class="b82b9d70-eab6-4946-b6fa-315c91ab56d7" d="M831.8,869H790.6a5,5,0,0,0-5,5h0v168.3a5,5,0,0,1-5,5H741.2a5,5,0,0,1-5-5h0V874a5,5,0,0,0-5-5h-41a5,5,0,0,1-5-5h0V826.2a5,5,0,0,1,5-5H831.8a5,5,0,0,1,4.9,5h0V864a4.9,4.9,0,0,1-4.9,5Z"/><path class="b82b9d70-eab6-4946-b6fa-315c91ab56d7" d="M1033.2,1042.3a5,5,0,0,1-5,5H909c-18.5,0-33.3-7.3-44.1-21.8s-14.6-28.8-14.6-47.6c0-16,3.6-29.9,10.7-41.7a5.3,5.3,0,0,0,0-5.2c-7.1-11.8-10.7-25.5-10.7-41.2,0-18.4,4.9-34.2,14.6-47.1A55.2,55.2,0,0,1,909,821.2h119.2a5,5,0,0,1,5,5h0V864a5,5,0,0,1-5,5H917.1a14.3,14.3,0,0,0-12.4,6.2,23.6,23.6,0,0,0-4.6,14.5,22.3,22.3,0,0,0,4.4,13.8c3,3.8,7.1,5.7,12.6,5.7h111.1a5,5,0,0,1,5,5h0V958H911.7a5.9,5.9,0,0,0-2.6.7,17.4,17.4,0,0,0-6.2,7,27.4,27.4,0,0,0-2.8,12.3,25,25,0,0,0,4.4,14.5,14.8,14.8,0,0,0,12.6,6.1h111.1a4.9,4.9,0,0,1,5,4.9h0Z"/><path class="b82b9d70-eab6-4946-b6fa-315c91ab56d7" d="M1158.6,1047.3H1057.2a5,5,0,0,1-5-5h0V826.2a5.1,5.1,0,0,1,5-5h101.4q37.7,0,60.2,35.9c13.5,21.6,20.3,48,20.3,78.9s-6.7,55.9-20,76.7Q1196.9,1047.4,1158.6,1047.3Zm-8.1-49.1c11.4,0,20.6-6.9,27.5-20.7s9.4-27.7,9.4-45.5-3-31.7-9.1-43.4-16-19.6-27.8-19.6h-45.1a5,5,0,0,0-5,5h0V993.2a5,5,0,0,0,5,5h45.1Z"/><path class="b82b9d70-eab6-4946-b6fa-315c91ab56d7" d="M645.8,444.4h0c59.4,0,107.5,59.4,107.5,132.8v64.5c0,6.2-4,11.1-9,11.1h-197c-5,0-9-4.9-9-11.1V577.2C538.3,503.8,586.4,444.4,645.8,444.4Z"/><path class="e3d3abc3-c236-49ec-b703-219988a267df" d="M685.8,273v26.1a7.3,7.3,0,0,0,5.8,7.3c72.8,12.9,135.9,56,177,116.6a6.8,6.8,0,0,0,8.8,2.3L900,414a7.7,7.7,0,0,0,3.1-10.2l-.4-.6a327.4,327.4,0,0,0-36.4-45.7c-47.4-49.6-107.4-81.3-172.4-91.7a7,7,0,0,0-8,6A4.9,4.9,0,0,0,685.8,273Z"/><path class="e3d3abc3-c236-49ec-b703-219988a267df" d="M925.9,588.1h24.6a7.2,7.2,0,0,0,7-7.4h0a343.2,343.2,0,0,0-13-86.7,7,7,0,0,0-8.4-5.1,5.9,5.9,0,0,0-1.4.6l-22.6,11.3a7.5,7.5,0,0,0-3.7,8.6,298.5,298.5,0,0,1,10.5,71.6A7.2,7.2,0,0,0,925.9,588.1Z"/><path class="e3d3abc3-c236-49ec-b703-219988a267df" d="M341.1,588.1h24.6a7.2,7.2,0,0,0,7-7.2,298.5,298.5,0,0,1,10.5-71.6,7.6,7.6,0,0,0-3.7-8.6l-22.6-11.3a6.9,6.9,0,0,0-9.3,3,8.8,8.8,0,0,0-.5,1.5,343.2,343.2,0,0,0-13,86.7,7.2,7.2,0,0,0,6.9,7.5Z"/><path class="e3d3abc3-c236-49ec-b703-219988a267df" d="M605.8,299.1V273a7.1,7.1,0,0,0-6.9-7.3h-1.2c-65,10.4-125,42.1-172.4,91.7a320.2,320.2,0,0,0-36.4,45.7,7.5,7.5,0,0,0,2,10.4l.7.4,22.6,11.3A6.8,6.8,0,0,0,423,423c41.1-60.6,104.2-103.7,177-116.6A7.4,7.4,0,0,0,605.8,299.1Z"/><path class="e3d3abc3-c236-49ec-b703-219988a267df" d="M605.8,199.1V173.2a7.3,7.3,0,0,0-7.1-7.4H598a385.7,385.7,0,0,0-110.4,30.5,401.6,401.6,0,0,0-129.2,91.1,419.1,419.1,0,0,0-55.8,72.7,7.5,7.5,0,0,0,2.5,10.3l.4.2L328,382a6.9,6.9,0,0,0,8.9-2.6c57.7-93.1,152.7-158.6,262.8-173A7.4,7.4,0,0,0,605.8,199.1Z"/><path class="e3d3abc3-c236-49ec-b703-219988a267df" d="M1020.5,588.1h24.6a7.2,7.2,0,0,0,7-7.4h0a439.2,439.2,0,0,0-21.7-130.2,6.9,6.9,0,0,0-8.6-4.7l-1.1.5-22.4,11.2a7.5,7.5,0,0,0-3.6,8.9,397.9,397.9,0,0,1,18.8,114.6A7.2,7.2,0,0,0,1020.5,588.1Z"/><path class="e3d3abc3-c236-49ec-b703-219988a267df" d="M246.5,588.1h24.6a7.2,7.2,0,0,0,7-7.2,394.5,394.5,0,0,1,18.8-114.6,7.5,7.5,0,0,0-3.6-8.9l-22.4-11.2a6.9,6.9,0,0,0-9.3,3,5.6,5.6,0,0,0-.4,1.2,436,436,0,0,0-21.7,130.2,7.2,7.2,0,0,0,6.9,7.5Z"/><path class="e3d3abc3-c236-49ec-b703-219988a267df" d="M804,196.4a385.7,385.7,0,0,0-110.4-30.5,7.1,7.1,0,0,0-7.8,6.5v26.7a7.2,7.2,0,0,0,6.1,7.3C802,220.8,897,286.3,954.7,379.4a6.9,6.9,0,0,0,8.9,2.6l22.5-11.3a7.7,7.7,0,0,0,3.1-10.2l-.2-.3a419.1,419.1,0,0,0-55.8-72.7A403.8,403.8,0,0,0,804,196.4Z"/><path class="e3d3abc3-c236-49ec-b703-219988a267df" d="M151.9,588.1h24.5a7.3,7.3,0,0,0,7.1-7.2A496.3,496.3,0,0,1,211,423.4a7.5,7.5,0,0,0-3.6-9.1l-22.3-11.2a6.8,6.8,0,0,0-9.2,3.1,3,3,0,0,0-.4,1,539.1,539.1,0,0,0-30.7,173.4,7.3,7.3,0,0,0,7.1,7.5Z"/><path class="e3d3abc3-c236-49ec-b703-219988a267df" d="M605.8,99.5V73.7a7.2,7.2,0,0,0-7-7.4h-.7a476.3,476.3,0,0,0-147.3,38.9A497.7,497.7,0,0,0,291.5,217.5a516.1,516.1,0,0,0-74.7,99.7,7.4,7.4,0,0,0,2.6,10.2l.4.3,22.4,11.2a6.9,6.9,0,0,0,9-2.7c73.7-125.9,200.9-214,348.3-229.4A7.3,7.3,0,0,0,605.8,99.5Z"/><path class="e3d3abc3-c236-49ec-b703-219988a267df" d="M1115.2,588.1h24.5a7.3,7.3,0,0,0,7.1-7.5h0a541.9,541.9,0,0,0-30.7-173.4,6.9,6.9,0,0,0-8.7-4.5l-.9.4-22.3,11.2a7.5,7.5,0,0,0-3.6,9.1,502,502,0,0,1,27.5,157.5A7.2,7.2,0,0,0,1115.2,588.1Z"/><path class="e3d3abc3-c236-49ec-b703-219988a267df" d="M1049.4,338.9l22.4-11.2a7.5,7.5,0,0,0,3.2-10.1c-.1-.2-.1-.3-.2-.4a516.1,516.1,0,0,0-74.7-99.7A498.8,498.8,0,0,0,840.8,105.2,477,477,0,0,0,693.5,66.3a7.2,7.2,0,0,0-7.7,6.6V99.5a7.2,7.2,0,0,0,6.3,7.3c147.4,15.4,274.6,103.5,348.3,229.4A6.9,6.9,0,0,0,1049.4,338.9Z"/><rect class="e3d3abc3-c236-49ec-b703-219988a267df" x="541.4" y="674.2" width="216" height="76" rx="15.5"/><path class="e3d3abc3-c236-49ec-b703-219988a267df" d="M644.7,482.7a36.5,36.5,0,1,1-36.5,36.5h0A36.5,36.5,0,0,1,644.7,482.7Zm0,66.5a30.2,30.2,0,1,0-30-30.4v.4A30.2,30.2,0,0,0,644.7,549.2Z"/><path class="e3d3abc3-c236-49ec-b703-219988a267df" d="M644.7,515.5A36.5,36.5,0,1,1,608.2,552h0A36.5,36.5,0,0,1,644.7,515.5Zm0,66.5a30.2,30.2,0,1,0-30-30.3v.3A30.2,30.2,0,0,0,644.7,582Z"/><path class="e3d3abc3-c236-49ec-b703-219988a267df" d="M644.7,549.2a36.5,36.5,0,1,1-36.5,36.5h0A36.6,36.6,0,0,1,644.7,549.2Zm0,66.4a30.2,30.2,0,1,0-30-30.3v.4a30.1,30.1,0,0,0,30,29.9Z"/><path class="e3d3abc3-c236-49ec-b703-219988a267df" d="M615.9,532.4a36.5,36.5,0,1,1-36.5,36.5h0A36.7,36.7,0,0,1,615.9,532.4Zm0,66.5a30,30,0,1,0-30-30,30,30,0,0,0,30,30Z"/><path class="e3d3abc3-c236-49ec-b703-219988a267df" d="M616.3,498.8a36.5,36.5,0,1,1-36.5,36.5h0A36.4,36.4,0,0,1,616.3,498.8Zm0,66.4a30.2,30.2,0,1,0-30.2-30.1v.2a29.9,29.9,0,0,0,30,29.9Z"/><path class="e3d3abc3-c236-49ec-b703-219988a267df" d="M673.3,532.7a36.5,36.5,0,1,1-36.5,36.5h0A36.6,36.6,0,0,1,673.3,532.7Zm0,66.5a30.2,30.2,0,1,0-30.1-30.1h0a30,30,0,0,0,30,30Z"/><path class="e3d3abc3-c236-49ec-b703-219988a267df" d="M673.5,498.9A36.7,36.7,0,1,1,637,535.8v-.2a36.5,36.5,0,0,1,36.3-36.7Zm0,66.7a30.2,30.2,0,1,0-30-30.3v.3A30.2,30.2,0,0,0,673.5,565.6Z"/><path class="e3d3abc3-c236-49ec-b703-219988a267df" d="M644.5,553.5a28.1,28.1,0,0,1,0,30.3"/><path class="e3d3abc3-c236-49ec-b703-219988a267df" d="M645.2,520.2a27.8,27.8,0,0,0-.1,30.1"/><path class="e3d3abc3-c236-49ec-b703-219988a267df" d="M643.4,553.2a28.4,28.4,0,0,1-26.3,14.9"/><path class="e3d3abc3-c236-49ec-b703-219988a267df" d="M617.3,536.4a27.8,27.8,0,0,0,26.1,15.1"/><path class="e3d3abc3-c236-49ec-b703-219988a267df" d="M646.6,551.3a27.6,27.6,0,0,1,26.1-14.9"/><path class="e3d3abc3-c236-49ec-b703-219988a267df" d="M672.3,568.2a27.6,27.6,0,0,0-26.1-15"/><rect class="b82b9d70-eab6-4946-b6fa-315c91ab56d7" x="586.5" y="738.8" width="125.1" height="22.82" transform="translate(1298.2 1500.4) rotate(-180)"/><rect class="e3d3abc3-c236-49ec-b703-219988a267df" x="1109.7" y="664" width="36" height="98.46" rx="6.7"/><rect class="e3d3abc3-c236-49ec-b703-219988a267df" x="1014.8" y="663.8" width="36" height="98.46" rx="6.7"/><rect class="e3d3abc3-c236-49ec-b703-219988a267df" x="922.8" y="663.8" width="36" height="98.46" rx="6.7"/><rect class="e3d3abc3-c236-49ec-b703-219988a267df" x="333.6" y="664.1" width="36" height="98.46" rx="6.7"/><rect class="e3d3abc3-c236-49ec-b703-219988a267df" x="238.6" y="663.9" width="36" height="98.46" rx="6.7"/><rect class="e3d3abc3-c236-49ec-b703-219988a267df" x="146.7" y="663.9" width="36" height="98.46" rx="6.7"/></svg>