<svg id="ee1b4497-f7fc-41a0-b6cc-dd60ebd640e5" data-name="Capa 1" xmlns="http://www.w3.org/2000/svg" viewBox="0 0 30 30"><polygon points="20.3 24.4 5.9 23.6 1.8 25.4 1.8 12.7 3.3 12.7 3.3 10.4 0 10.6 0 25.5 0 28.5 6.2 26 22.8 27.3 22.8 24.4 20.3 23.2 20.3 24.4"/><path d="M5.1,4.4V19.8l15.9.3,9,4.1V1.5Zm6.5,9.1A1.4,1.4,0,0,1,10.3,12a1.5,1.5,0,0,1,1.3-1.6c.7-.1,1.3.6,1.3,1.5A1.6,1.6,0,0,1,11.6,13.5Zm4.7-.2a1.5,1.5,0,0,1-1.4-1.5,1.6,1.6,0,0,1,1.4-1.7,1.4,1.4,0,0,1,1.5,1.5A1.7,1.7,0,0,1,16.3,13.3Zm5.1-.2a1.5,1.5,0,0,1-1.6-1.6,1.7,1.7,0,0,1,1.6-1.7,1.5,1.5,0,0,1,1.5,1.6A1.7,1.7,0,0,1,21.4,13.1Z"/></svg>