<svg id="fb7fe6fc-ae4a-4338-954e-bfe4a2d8d724" data-name="Layer 1" xmlns="http://www.w3.org/2000/svg" viewBox="0 0 52 52"><path d="M48.5,5.6,46.4,3.5a1.7,1.7,0,0,0-2.4.3L20.5,27.3l-5-5.6a1.7,1.7,0,0,1-.2-2.1l3.8-5.2A3.9,3.9,0,0,0,19,9.6L14.1,3.5a4,4,0,0,0-5.9-.3L3,8.4a4.2,4.2,0,0,0-1.2,3A41,41,0,0,0,11.8,36l-8,8a1.9,1.9,0,0,0-.3,2.4l2.1,2.1A1.7,1.7,0,0,0,8,48.2L48.2,8A1.7,1.7,0,0,0,48.5,5.6Z"/><path d="M48.5,37.9,42.4,33a3.9,3.9,0,0,0-4.8-.1l-5.2,3.8a1.6,1.6,0,0,1-2.1-.2l-2.4-2.2-8.5,8.5a42,42,0,0,0,21,7.2,3.9,3.9,0,0,0,3-1.2l5.2-5.2A3.6,3.6,0,0,0,48.5,37.9Z"/></svg>