<svg id="f5685f88-7a8c-43bf-bf1f-02249cb4f9b4" data-name="af5c1270-77a8-4e18-bb0e-6b0707412ffe" xmlns="http://www.w3.org/2000/svg" viewBox="0 0 603.3 374.6"><path d="M301.6,16.6c-94.1,0-170.7,76.6-170.7,170.7s76.6,170.6,170.7,170.6,170.6-76.5,170.6-170.6S395.7,16.6,301.6,16.6Zm.5,35.7a28.8,28.8,0,1,1-28.7,28.9v-.3A28.7,28.7,0,0,1,302.1,52.3Zm28.7,258.6H273.4a28.8,28.8,0,0,1-3.9-57.5h3.9V196a28.8,28.8,0,1,1-3.9-57.5h32.6a28.6,28.6,0,0,1,28.7,28.7h0v86.2a28.8,28.8,0,0,1,0,57.5Z"/><path d="M503.8-22.9,486.4-5.1a7.6,7.6,0,0,0,.2,10.7h0a261.4,261.4,0,0,1,7.3,362.5,7.6,7.6,0,0,0,.1,10.4l17.5,17.8a7.6,7.6,0,0,0,10.9-.1A301.6,301.6,0,0,0,514.6-23,7.6,7.6,0,0,0,503.8-22.9Z"/><path d="M60.4,292.5A261.4,261.4,0,0,1,116.5,5.6h.1a7.2,7.2,0,0,0,.1-10.1l-18-18.3a7.2,7.2,0,0,0-10.2-.1,301.7,301.7,0,0,0-6.9,420,7.2,7.2,0,0,0,10.4.1l17.9-18.3a7.3,7.3,0,0,0,.1-10A260.3,260.3,0,0,1,60.4,292.5Z"/></svg>