<svg id="f3b7a04a-a32d-4eda-997f-bfc5bd3b8c7e" data-name="eab15be0-aeb4-40e0-b31b-2977560550db" xmlns="http://www.w3.org/2000/svg" viewBox="0 0 493.8 160.2"><defs><style>.a8681e74-7432-4f53-94a6-4b9c473e1a9d{fill:#d99938;}.b7e279a3-4a31-4e08-b926-97b473096e16{fill:#e5e5e5;}.fc20be5c-470f-46d8-a038-af96bcbab344{fill:none;stroke:#e5e5e5;stroke-linecap:round;stroke-miterlimit:10;stroke-width:2px;}</style></defs><g id="bf13227b-ea54-41e1-bf99-b6f73d9d1802" data-name="b8c00dc4-fc3f-4001-9fb2-655bb12f3af7"><path class="a8681e74-7432-4f53-94a6-4b9c473e1a9d" d="M74.8,160.1a40.7,40.7,0,1,1,40.7-40.7h0A40.8,40.8,0,0,1,74.8,160.1Zm0-78.7a38.1,38.1,0,1,0,38.1,38.1h0A38.2,38.2,0,0,0,74.8,81.4Z"/><path class="a8681e74-7432-4f53-94a6-4b9c473e1a9d" d="M74.8,121.3a40.7,40.7,0,1,1,40.7-40.7h0A40.9,40.9,0,0,1,74.8,121.3Zm0-78.8a38.1,38.1,0,1,0,38.1,38.1h0A38.2,38.2,0,0,0,74.8,42.5Z"/><path class="a8681e74-7432-4f53-94a6-4b9c473e1a9d" d="M74.8,81.4a40.7,40.7,0,1,1,40.7-40.7h0A40.7,40.7,0,0,1,74.8,81.4Zm0-78.8a38.1,38.1,0,1,0,38.1,38.1h0A38.2,38.2,0,0,0,74.8,2.6Z"/><path class="a8681e74-7432-4f53-94a6-4b9c473e1a9d" d="M108.9,101.2a40.7,40.7,0,1,1,40.7-40.7h0A40.7,40.7,0,0,1,108.9,101.2Zm0-78.8A38.1,38.1,0,1,0,147,60.5h0a38.3,38.3,0,0,0-38.1-38.1Z"/><path class="a8681e74-7432-4f53-94a6-4b9c473e1a9d" d="M108.6,141a40.7,40.7,0,1,1,40.7-40.7h0A40.8,40.8,0,0,1,108.6,141Zm0-78.7a38.1,38.1,0,1,0,38.1,38.1h0a38.2,38.2,0,0,0-38.1-38.1Z"/><path class="a8681e74-7432-4f53-94a6-4b9c473e1a9d" d="M41,100.9A40.7,40.7,0,1,1,81.6,60.1h0A40.8,40.8,0,0,1,41,100.9Zm0-78.8A38.1,38.1,0,1,0,79.1,60.2h0A38.3,38.3,0,0,0,41,22.1Z"/><path class="a8681e74-7432-4f53-94a6-4b9c473e1a9d" d="M40.7,140.7A40.7,40.7,0,1,1,81.3,99.9v.2h0a40.6,40.6,0,0,1-40.6,40.6Zm0-78.8a38.2,38.2,0,1,0,38.1,38.3h0A38.4,38.4,0,0,0,40.7,61.9Z"/><path class="a8681e74-7432-4f53-94a6-4b9c473e1a9d" d="M75.1,78.7a33.4,33.4,0,0,1,0-35.7"/><path class="a8681e74-7432-4f53-94a6-4b9c473e1a9d" d="M74.1,118.2a33,33,0,0,0,.4-35.7"/><path class="a8681e74-7432-4f53-94a6-4b9c473e1a9d" d="M76.4,79.2a33.3,33.3,0,0,1,31.1-17.6"/><path class="a8681e74-7432-4f53-94a6-4b9c473e1a9d" d="M107.3,99.1c-10.3-20-30.9-18-30.9-18"/><path class="a8681e74-7432-4f53-94a6-4b9c473e1a9d" d="M72.7,81.4A33,33,0,0,1,41.7,99"/><path class="a8681e74-7432-4f53-94a6-4b9c473e1a9d" d="M42.1,61.3c10.5,19.9,31,17.8,31,17.8"/></g><g id="a487818f-0d4d-4bf9-80ba-2438707c31db" data-name="b551649b-19e8-4d5a-9a99-c529ed7d037e"><path class="a8681e74-7432-4f53-94a6-4b9c473e1a9d" d="M352.7,35.5l9.2,24.8a2.1,2.1,0,0,0,1.7,1.3,1.6,1.6,0,0,0,1.6-1.6h0V41.7c0-4,2.3-6.8,6.8-6.8s6.1,2.2,7.3,5.7l7.4,19.7a2.1,2.1,0,0,0,1.7,1.3,1.7,1.7,0,0,0,1.6-1.5h0V35.5h5.4V60.1c0,4.1-2.3,6.7-6.9,6.7s-6-2.1-7.2-5.7l-7.5-19.6a1.7,1.7,0,0,0-1.7-1.3,1.6,1.6,0,0,0-1.6,1.6V60.2c0,4-2.2,6.7-6.8,6.7s-6.1-2.2-7.2-5.7l-9.6-25.7Z"/><path class="a8681e74-7432-4f53-94a6-4b9c473e1a9d" d="M403.9,66.2H398l10.8-27.4c1.2-2.8,3.2-3.9,6.5-3.9s5.3,1.1,6.4,3.9l10.4,27.4h-6l-9.3-24.7a1.5,1.5,0,0,0-2.1-.9,1.6,1.6,0,0,0-.9.9Z"/><path class="a8681e74-7432-4f53-94a6-4b9c473e1a9d" d="M453.3,35.5c6.9,0,9.8,4.3,9.8,9.2s-1.8,7.9-6.4,9.3l7.1,12.3h-6l-7-12h-8.1a.8.8,0,0,0-.8.6V66.2h-5.3V54c0-3.4,1.5-4.8,4.8-4.8h12c3,0,4.2-2.1,4.2-4.3a3.8,3.8,0,0,0-3.7-4.1H436.6V35.4Z"/><path class="a8681e74-7432-4f53-94a6-4b9c473e1a9d" d="M493.7,35.5v5.4H478.4c-3.3,0-4.7,1.5-4.7,3.9s1.6,3.6,4.7,3.6h15.2v4.9H478.3c-3.1,0-4.7,1.2-4.7,3.7s1.5,3.9,4.6,3.9h15.6v5.4H478.2c-7.3,0-10.2-3.6-10.2-8.4s1.6-5.9,4.4-7.1c-2.9-1.1-4.4-3.6-4.4-6.9,0-4.9,3.1-8.4,10.4-8.4Z"/><path class="b7e279a3-4a31-4e08-b926-97b473096e16" d="M182.5,35.5c7.2,0,10.3,3.4,10.3,8.4s-1.5,5.7-4.4,6.9c2.9,1.1,4.6,3.4,4.6,7s-3.1,8.5-10.4,8.5H169c-1.8,0-2.6-.8-2.6-2.6V38a2.3,2.3,0,0,1,2-2.6h14.1Zm-10.8,13h10.9c3.2,0,4.8-1.2,4.8-3.7s-1.4-4.1-4.7-4.1H172.3c-.3-.1-.5.1-.6.4v7.4Zm0,11.9c0,.4.2.5.6.5h10.5c3.2,0,4.8-1.5,4.8-4s-1.6-4-4.8-4H171.7Z"/><path class="b7e279a3-4a31-4e08-b926-97b473096e16" d="M215.8,35.5c7,0,9.9,4.3,9.9,9.2s-1.8,7.9-6.5,9.3l7.1,12.3h-5.9l-7-12h-8.1a.8.8,0,0,0-.8.6V66.2h-5.3V54c0-3.4,1.5-4.8,4.8-4.8h12a4,4,0,0,0,4.3-3.7v-.6c0-2.2-1.3-4.1-4.3-4.1H199.1V35.4Z"/><path class="b7e279a3-4a31-4e08-b926-97b473096e16" d="M234.8,66.2h-5.9l10.8-27.4c1.1-2.8,3.2-3.9,6.5-3.9s5.3,1.1,6.3,3.9l10.4,27.4h-6l-9.3-24.7a1.5,1.5,0,0,0-2.1-.9,1.6,1.6,0,0,0-.9.9Z"/><path class="b7e279a3-4a31-4e08-b926-97b473096e16" d="M272.9,35.5V48h15.7V35.4H294V66.2h-5.4V53.4H272.9V66.2h-5.4V35.4h5.4Z"/><path class="b7e279a3-4a31-4e08-b926-97b473096e16" d="M306.8,66.2h-5.4V41.6c0-4,2.3-6.7,6.9-6.7s6.1,2.1,7.2,5.7L323,60.2a1.8,1.8,0,0,0,1.7,1.3,1.7,1.7,0,0,0,1.7-1.6h0V41.6c0-4,2.2-6.7,6.8-6.7s6,2.1,7.2,5.7L350,66.2h-5.8L335,41.4a1.7,1.7,0,0,0-1.7-1.3,1.6,1.6,0,0,0-1.6,1.6V60.1c0,4.1-2.3,6.7-6.8,6.7s-6.1-2.1-7.3-5.7l-7.4-19.6a1.7,1.7,0,0,0-3.3.2V66.2Z"/></g><path class="a8681e74-7432-4f53-94a6-4b9c473e1a9d" d="M268.3,124.9h-6V98h6Z"/><path class="a8681e74-7432-4f53-94a6-4b9c473e1a9d" d="M297.8,119.4a5.5,5.5,0,0,1-2.1,4.3,8.3,8.3,0,0,1-4.8,1.5,7.6,7.6,0,0,1-4.2-1.2,8.5,8.5,0,0,1-3-4c-.1-.4-.7-2.3-1.6-5.8a59.4,59.4,0,0,0-2.3-7.3c-.7-1.8-1.6-3.6-2.2-3.5a.8.8,0,0,0-.7.4,1.4,1.4,0,0,0-.3.9v20.2h-5.9V103.3a5.6,5.6,0,0,1,2.2-4.5,9.5,9.5,0,0,1,4.9-1.3c2.7,0,4.8,1.4,6.4,4a39,39,0,0,1,3,8.7,58.7,58.7,0,0,0,2.3,8.2,1.3,1.3,0,0,0,1.2.8,1.1,1.1,0,0,0,.8-.3,1.7,1.7,0,0,0,.3-1V97.8h6Z"/><path class="a8681e74-7432-4f53-94a6-4b9c473e1a9d" d="M326.7,98.2l-2.4,7.7c-1.2,3.9-2.4,7.5-3.5,10.8a42.9,42.9,0,0,1-2.3,6.3,4.8,4.8,0,0,1-2.3,1.7,9.4,9.4,0,0,1-6.6,0,4.8,4.8,0,0,1-2.3-1.7,34.1,34.1,0,0,1-2.4-6.3c-.7-2.2-1.9-5.9-3.4-10.8s-2.1-6.7-2.5-7.7h6.4l7,20.8c0,.2.3.4.5.4a.7.7,0,0,0,.5-.4l6.9-20.8Z"/><path class="a8681e74-7432-4f53-94a6-4b9c473e1a9d" d="M333.9,124.9H328V98h5.9Z"/><path class="a8681e74-7432-4f53-94a6-4b9c473e1a9d" d="M353.5,103.7h-6.1v21.2h-5.9V103.7h-6V98h18Z"/><path class="a8681e74-7432-4f53-94a6-4b9c473e1a9d" d="M377.9,124.9H362.6a6.5,6.5,0,0,1-5.4-2.6,9,9,0,0,1-1.8-5.7,8.8,8.8,0,0,1,1.5-5.2,9.5,9.5,0,0,1-1.5-5.2,8.7,8.7,0,0,1,1.8-5.6,6.5,6.5,0,0,1,5.4-2.6h15.3v5.7H363.6a2,2,0,0,0-1.6.7,3.1,3.1,0,0,0,0,3.4,2.4,2.4,0,0,0,1.6.7h14.3v5.8H362.8a1.8,1.8,0,0,0-1,.9,3.2,3.2,0,0,0-.3,1.4,3.4,3.4,0,0,0,.5,1.7,2.1,2.1,0,0,0,1.6.8h14.3Z"/><path class="a8681e74-7432-4f53-94a6-4b9c473e1a9d" d="M393.4,124.9H380.3V98h13.1a8.5,8.5,0,0,1,7.5,4.3,17.2,17.2,0,0,1,2.5,9.4,15.9,15.9,0,0,1-2.5,9A8.4,8.4,0,0,1,393.4,124.9Zm-1-5.9a3.9,3.9,0,0,0,3.4-2.4,12.7,12.7,0,0,0,.1-10.6,3.8,3.8,0,0,0-3.5-2.3h-6.2V119Z"/><line class="fc20be5c-470f-46d8-a038-af96bcbab344" x1="193.3" y1="81.2" x2="311.3" y2="81.2"/><line class="fc20be5c-470f-46d8-a038-af96bcbab344" x1="349.9" y1="81.2" x2="468" y2="81.2"/><circle class="a8681e74-7432-4f53-94a6-4b9c473e1a9d" cx="330.6" cy="81" r="4.8"/></svg>