<svg id="aa1ef20f-70b3-40cd-87e1-426d849e0584" data-name="Layer 1" xmlns="http://www.w3.org/2000/svg" viewBox="0 0 512 512"><path d="M334.7,511.7H177.3a19.7,19.7,0,0,1,0-39.4H334.7a19.7,19.7,0,0,1,0,39.4Z"/><path d="M256,413.3c-97.6,0-177-79.4-177-177V197a19.7,19.7,0,1,1,39.3,0v39.3C118.3,312.2,180.1,374,256,374s137.7-61.8,137.7-137.7V197a19.7,19.7,0,1,1,39.3,0v39.3C433,333.9,353.6,413.3,256,413.3Z"/><path d="M256,511.7A19.7,19.7,0,0,1,236.3,492V393.7a19.7,19.7,0,0,1,39.4,0V492A19.7,19.7,0,0,1,256,511.7Z"/><path d="M256,334.7A97,97,0,0,1,186.5,305a99,99,0,0,1-28.8-69.9V98.7A97.9,97.9,0,0,1,255.2.3h.8c55.1,0,98.3,43.2,98.3,98.4V235.1C354.3,290,310.2,334.7,256,334.7Z"/></svg>