<svg id="af08f352-9b82-447c-b501-d6b2f618207a" data-name="Layer 1" xmlns="http://www.w3.org/2000/svg" viewBox="0 0 460 460"><path d="M425.9,0H171.7a32.9,32.9,0,0,0-32.9,32.9V110H288.3a62.9,62.9,0,0,1,62.9,62.9V320h74.7a32.9,32.9,0,0,0,32.9-32.9V32.9A32.9,32.9,0,0,0,425.9,0Z"/><path d="M288.3,140H34.1A32.9,32.9,0,0,0,1.2,172.9V427.1A32.9,32.9,0,0,0,34.1,460H288.3a32.9,32.9,0,0,0,32.9-32.9V172.9A32.9,32.9,0,0,0,288.3,140ZM217.7,417.5a36.9,36.9,0,0,1-36.9-36.9,34.4,34.4,0,0,1,1.3-9.7L124,330.4A36.9,36.9,0,1,1,104.7,262a36.2,36.2,0,0,1,19.3,5.5l57.6-40.2a41.5,41.5,0,0,1-.8-7.9,37,37,0,1,1,15.6,30.1l-56.2,39.2a38.6,38.6,0,0,1,1.4,10.2,37.5,37.5,0,0,1-1.4,10.2l57.7,40.3a36.9,36.9,0,1,1,19.8,68.1Z"/></svg>