<svg id="a2a863c3-8c12-46ca-9c6e-1a44155002f6" data-name="b0bd2927-6b8b-4dc7-9cc2-6249bccc165d" xmlns="http://www.w3.org/2000/svg" viewBox="0 0 28 28"><path d="M25.4,22.2l-4.3-4.3V10.6l4.3-4.4a1.5,1.5,0,0,1,2.1-.1A1.8,1.8,0,0,1,28,7.3V21.1a1.6,1.6,0,0,1-1.7,1.4A1.2,1.2,0,0,1,25.4,22.2Z"/><path d="M15.4,3.9H3.9A4,4,0,0,0,0,7.9V20.5A4.1,4.1,0,0,0,2.1,24L19.2,6.9A4.1,4.1,0,0,0,15.4,3.9Z"/><path d="M15.4,24.4a3.8,3.8,0,0,0,3.9-3.9V10.6L5.5,24.4Z"/><path d="M2.1,24,.4,25.7a1.4,1.4,0,0,0,0,1.9,1.2,1.2,0,0,0,.9.4,1.3,1.3,0,0,0,1-.4l3.2-3.2H3.9A5.8,5.8,0,0,1,2.1,24Z"/><path d="M27.5.5a1.4,1.4,0,0,0-1.9,0L19.2,6.9c0,.3.1.7.1,1v2.7l8.2-8.2A1.4,1.4,0,0,0,27.5.5Z"/></svg>