<svg id="a000c15e-3103-4859-bdf0-2d2f69f3e41c" data-name="aa1ef20f-70b3-40cd-87e1-426d849e0584" xmlns="http://www.w3.org/2000/svg" viewBox="0 0 512 512"><path d="M334.7,511.7H177.3a19.7,19.7,0,0,1,0-39.4H334.7a19.7,19.7,0,0,1,0,39.4Z"/><path d="M256,511.7A19.7,19.7,0,0,1,236.3,492h0V393.7a19.7,19.7,0,0,1,39.4,0V492A19.7,19.7,0,0,1,256,511.7Z"/><path d="M118.3,236.3V197a13.1,13.1,0,0,0,0-2.8A19.7,19.7,0,1,0,79,197v39.3a176.1,176.1,0,0,0,44.8,117.6L151.6,326A137.4,137.4,0,0,1,118.3,236.3Z"/><path d="M256,413.3c97.6,0,177-79.4,177-177V197a13.1,13.1,0,0,0,0-2.8,19.7,19.7,0,1,0-39.3,2.8v39.3C393.7,312.2,331.9,374,256,374a136.9,136.9,0,0,1-65.8-16.8l-28.6,28.7A175,175,0,0,0,256,413.3Z"/><path d="M256,334.7c54.2,0,98.3-44.7,98.3-99.6V193.2L219.9,327.6A96.4,96.4,0,0,0,256,334.7Z"/><path d="M354.3,98.7C354.3,43.5,311.1.3,256,.3h-.9a97.9,97.9,0,0,0-97.4,98.4V235.1a99.3,99.3,0,0,0,22.2,62.6L354.3,123.3Z"/><path d="M504.8,42.7a24.7,24.7,0,0,0-35-34.9L354.3,123.3v69.9Z"/><path d="M186.5,305c-2.3-2.3-4.5-4.8-6.6-7.3L151.6,326a140.2,140.2,0,0,0,38.6,31.2l29.7-29.6A96.9,96.9,0,0,1,186.5,305Z"/><path d="M123.8,353.9,7.2,470.4a24.7,24.7,0,1,0,35,34.9L161.6,385.9A178.7,178.7,0,0,1,123.8,353.9Z"/></svg>