<svg id="ef292c30-8406-4084-a6e3-b441009d7348" data-name="a2367a84-1469-418c-8952-900d3e009000" xmlns="http://www.w3.org/2000/svg" viewBox="0 0 512 512"><path d="M426.4,384c23.3,0,42.8-19.5,42.8-42.8V128c0-23.3-19.5-42.8-42.8-42.8H85.6a42.7,42.7,0,0,0-42.8,42.6V341.2A42.7,42.7,0,0,0,85.4,384H0v42.8H512V384Zm-68.3-35.7a12,12,0,0,1-8.5-3.5l-88.2-88.2-88.2,88.2a12.1,12.1,0,1,1-17.1-17.1l88.2-88.2-88.2-88.2a12.1,12.1,0,1,1,17.1-17.1l88.2,88.2,88.2-88.2a12.1,12.1,0,0,1,17.1,17.1l-88.2,88.2,88.2,88.2a12.1,12.1,0,0,1-8.6,20.6Z"/></svg>