<svg id="ea37f4b2-8365-46d2-aeb9-cdb64700c282" data-name="a007dd0e-7ccb-480a-9f9c-d16ed8f42fdc" xmlns="http://www.w3.org/2000/svg" viewBox="0 0 1000 1000"><defs><style>.af1954e6-a7b4-4783-9535-19ae240439a9{stroke:#000;stroke-miterlimit:10;stroke-width:0.25px;}</style></defs><path class="af1954e6-a7b4-4783-9535-19ae240439a9" d="M605.9,315.3c-61.2,2.4-86.4,55.1-75.6,98.9l95.9-96A97.3,97.3,0,0,0,605.9,315.3Z"/><path class="af1954e6-a7b4-4783-9535-19ae240439a9" d="M585.6,470a97.3,97.3,0,0,0,20.3,2.9c61.2-2.4,86.4-55.1,75.6-98.9Z"/><path class="af1954e6-a7b4-4783-9535-19ae240439a9" d="M605.9,527.1c-104.1,4-104.1,153.6,0,157.6C710,680.7,710,531.1,605.9,527.1Z"/><path class="af1954e6-a7b4-4783-9535-19ae240439a9" d="M394.1,763.5c-68.6.2-68.5,103.4,0,103.5C465.8,865.6,465.9,764.9,394.1,763.5Z"/><path class="af1954e6-a7b4-4783-9535-19ae240439a9" d="M394.1,472.9c104.1-4,104.1-153.6,0-157.6C290,319.3,290,468.9,394.1,472.9Z"/><path class="af1954e6-a7b4-4783-9535-19ae240439a9" d="M605.9,945.7c-37.1-3.1-35.6,57.3,0,54.3C639.2,1003.3,639.1,942.4,605.9,945.7Z"/><path class="af1954e6-a7b4-4783-9535-19ae240439a9" d="M605.9,763.5h0c-71.8,1.5-71.8,102,0,103.5C674.5,866.8,674.4,763.6,605.9,763.5Z"/><path class="af1954e6-a7b4-4783-9535-19ae240439a9" d="M972.8,578.8c-35.5-2.5-37.3,55.4,0,51.8C1010.4,633.8,1008.2,575.6,972.8,578.8Z"/><path class="af1954e6-a7b4-4783-9535-19ae240439a9" d="M764,180.5l47.2-47.2C781.5,135.2,765.7,157.2,764,180.5Z"/><path class="af1954e6-a7b4-4783-9535-19ae240439a9" d="M866.5,189l-47.4,47.5C849,234.6,864.8,212.4,866.5,189Z"/><path class="af1954e6-a7b4-4783-9535-19ae240439a9" d="M815.2,342.4c-69.3,0-67.6,104.8,0,105.9C882.8,447.2,884.6,342.3,815.2,342.4Z"/><path class="af1954e6-a7b4-4783-9535-19ae240439a9" d="M815.2,763.5c-68.5.2-68.5,103.4,0,103.5S883.8,763.6,815.2,763.5Z"/><path class="af1954e6-a7b4-4783-9535-19ae240439a9" d="M815.2,657.6c69.4,0,67.7-104.8,0-105.9h0C747.7,552.8,745.9,657.7,815.2,657.6Z"/><path class="af1954e6-a7b4-4783-9535-19ae240439a9" d="M394.1,684.7c61.2-2.4,86.4-55.1,75.6-98.9l-95.9,96A97.3,97.3,0,0,0,394.1,684.7Z"/><path class="af1954e6-a7b4-4783-9535-19ae240439a9" d="M394.1,527.1c-61.2,2.4-86.4,55.1-75.6,98.9l95.9-96A97.3,97.3,0,0,0,394.1,527.1Z"/><path class="af1954e6-a7b4-4783-9535-19ae240439a9" d="M394.1,236.5h0c71.8-1.5,71.8-102,0-103.5C325.5,133.2,325.6,236.4,394.1,236.5Z"/><path class="af1954e6-a7b4-4783-9535-19ae240439a9" d="M394.1,54.3c36.5,3.3,36.5-57.6,0-54.3C361-3.3,361,57.6,394.1,54.3Z"/><path class="af1954e6-a7b4-4783-9535-19ae240439a9" d="M394.1,945.7h0c-33.1-3.3-33.1,57.6,0,54.3C430.6,1003.3,430.6,942.4,394.1,945.7Z"/><path class="af1954e6-a7b4-4783-9535-19ae240439a9" d="M27.2,578.8c-35.4-2.5-37.2,55.4,0,51.8C64.9,633.8,62.7,575.6,27.2,578.8Z"/><path class="af1954e6-a7b4-4783-9535-19ae240439a9" d="M605.9,54.3c33.2,3.2,33.2-57.6,0-54.3C569.4-3.3,569.4,57.6,605.9,54.3Z"/><path class="af1954e6-a7b4-4783-9535-19ae240439a9" d="M605.9,236.5c68.6-.2,68.5-103.4,0-103.5C534.2,134.4,534.1,235.1,605.9,236.5Z"/><path class="af1954e6-a7b4-4783-9535-19ae240439a9" d="M972.8,369.5c-37.7-3.2-35.5,54.9,0,51.7C1008.2,424.4,1010.4,366.3,972.8,369.5Z"/><path class="af1954e6-a7b4-4783-9535-19ae240439a9" d="M184.8,236.6c68.5-.2,68.5-103.3,0-103.5S116.2,236.4,184.8,236.6Z"/><path class="af1954e6-a7b4-4783-9535-19ae240439a9" d="M27.2,421.2c35.4,3.2,37.7-54.9,0-51.7C-10.4,366.3-8.2,424.4,27.2,421.2Z"/><path class="af1954e6-a7b4-4783-9535-19ae240439a9" d="M184.8,342.4c-69.4,0-67.7,104.8,0,105.9C252.3,447.2,254.1,342.3,184.8,342.4Z"/><path class="af1954e6-a7b4-4783-9535-19ae240439a9" d="M133.5,811l47.3-47.3C151,765.5,135.2,787.7,133.5,811Z"/><path class="af1954e6-a7b4-4783-9535-19ae240439a9" d="M236,819.5l-47.3,47.3C218.5,865,234.3,842.8,236,819.5Z"/><path class="af1954e6-a7b4-4783-9535-19ae240439a9" d="M184.8,657.6c69.3,0,67.6-104.8,0-105.9h0C117.2,552.8,115.4,657.6,184.8,657.6Z"/><path class="af1954e6-a7b4-4783-9535-19ae240439a9" d="M318.5,626,180.8,763.7l4-.2c36.1.1,53.2,28.8,51.2,56L373.8,681.8C343.2,673.9,324.7,651.5,318.5,626Z"/><path class="af1954e6-a7b4-4783-9535-19ae240439a9" d="M133.5,811,10.9,933.6a39.3,39.3,0,0,0,27.8,67,38.8,38.8,0,0,0,27.7-11.5L188.7,866.8l-3.9.2C148.6,866.9,131.5,838.1,133.5,811Z"/><path class="af1954e6-a7b4-4783-9535-19ae240439a9" d="M530.3,414.2,414.4,530c30.6,7.9,49.1,30.3,55.3,55.8L585.6,470C555,462.1,536.5,439.7,530.3,414.2Z"/><path class="af1954e6-a7b4-4783-9535-19ae240439a9" d="M866.5,189,989.1,66.4a39.2,39.2,0,0,0-55.5-55.5L811.2,133.3l4-.2C851.4,133.2,868.4,161.9,866.5,189Z"/><path class="af1954e6-a7b4-4783-9535-19ae240439a9" d="M681.5,374,819.1,236.5h-3.9c-36.2-.1-53.3-28.9-51.2-56.1L626.2,318.2C656.8,326.1,675.3,348.5,681.5,374Z"/></svg>